<?xml version="1.0" encoding="UTF-8" standalone="no"?>
<svg
   xmlns:dc="http://purl.org/dc/elements/1.1/"
   xmlns:cc="http://creativecommons.org/ns#"
   xmlns:rdf="http://www.w3.org/1999/02/22-rdf-syntax-ns#"
   xmlns:svg="http://www.w3.org/2000/svg"
   xmlns="http://www.w3.org/2000/svg"
   xmlns:sodipodi="http://sodipodi.sourceforge.net/DTD/sodipodi-0.dtd"
   xmlns:inkscape="http://www.inkscape.org/namespaces/inkscape"
   width="32px"
   height="32px"
   viewBox="0 0 32 32"
   version="1.1"
   id="svg22"
   sodipodi:docname="github-alt-svgrepo-com.svg"
   inkscape:version="1.0.2-2 (e86c870879, 2021-01-15)">
  <metadata
     id="metadata28">
    <rdf:RDF>
      <cc:Work
         rdf:about="">
        <dc:format>image/svg+xml</dc:format>
        <dc:type
           rdf:resource="http://purl.org/dc/dcmitype/StillImage" />
      </cc:Work>
    </rdf:RDF>
  </metadata>
  <defs
     id="defs26" />
  <sodipodi:namedview
     pagecolor="#ffffff"
     bordercolor="#666666"
     borderopacity="1"
     objecttolerance="10"
     gridtolerance="10"
     guidetolerance="10"
     inkscape:pageopacity="0"
     inkscape:pageshadow="2"
     inkscape:window-width="702"
     inkscape:window-height="480"
     id="namedview24"
     showgrid="false"
     inkscape:zoom="8.0352434"
     inkscape:cx="16"
     inkscape:cy="16"
     inkscape:window-x="0"
     inkscape:window-y="0"
     inkscape:window-maximized="1"
     inkscape:current-layer="svg22" />
  <path
     d="M 5.6875 5 C 5.6875 5 5 6.207031 5 8.25 C 5 9.605469 5.308594 10.320313 5.53125 10.6875 C 3.96875 12.3125 3 14.515625 3 17.34375 C 3 24.585938 7.589844 27 16 27 C 24.410156 27 29 24.585938 29 17.34375 C 29 14.417969 28.085938 12.21875 26.59375 10.625 C 26.964844 9.515625 27.382813 7.421875 26.34375 5 C 23.242188 5 20.65625 7.382813 20.5625 7.46875 C 19.113281 7.152344 17.574219 7 16 7 C 14.394531 7 12.820313 7.195313 11.34375 7.5625 C 9.265625 5.503906 6.757813 5 5.6875 5 Z M 20.6875 15.4375 C 21.53125 15.429688 22.3125 15.5 23 15.71875 C 24.832031 16.300781 26 17.984375 26 19.875 C 26 25.109375 23.191406 26 16 26 C 10.65625 26 6.3125 25.058594 6.3125 20.0625 C 6.3125 18.15625 7.347656 17.078125 8.09375 16.40625 C 9.734375 14.929688 12.324219 15.65625 16 15.65625 C 17.671875 15.65625 19.277344 15.453125 20.6875 15.4375 Z M 10.5 18 C 9.671875 18 9 18.894531 9 20 C 9 21.105469 9.671875 22 10.5 22 C 11.328125 22 12 21.105469 12 20 C 12 18.894531 11.328125 18 10.5 18 Z M 21.5 18 C 20.671875 18 20 18.894531 20 20 C 20 21.105469 20.671875 22 21.5 22 C 22.328125 22 23 21.105469 23 20 C 23 18.894531 22.328125 18 21.5 18 Z M 10.34375 18.84375 C 10.578125 18.84375 10.75 19.042969 10.75 19.28125 C 10.75 19.519531 10.578125 19.71875 10.34375 19.71875 C 10.109375 19.71875 9.90625 19.519531 9.90625 19.28125 C 9.90625 19.042969 10.109375 18.84375 10.34375 18.84375 Z M 21.34375 18.84375 C 21.578125 18.84375 21.75 19.042969 21.75 19.28125 C 21.75 19.519531 21.578125 19.71875 21.34375 19.71875 C 21.109375 19.71875 20.90625 19.519531 20.90625 19.28125 C 20.90625 19.042969 21.109375 18.84375 21.34375 18.84375 Z"
     id="path20" />
  <path
     style="fill:#ffffff;fill-opacity:0;stroke-width:0.124452"
     d="M 12.577577,25.764132 C 9.5635914,25.367685 7.7727118,24.356781 6.882825,22.549597 6.4957421,21.763508 6.4794421,21.669946 6.4794421,20.234172 c 0,-1.429266 0.016711,-1.526495 0.3733552,-2.172351 0.4976929,-0.901283 1.4155279,-1.825115 2.1445721,-2.158585 0.5760326,-0.263482 0.7515104,-0.272565 6.0070166,-0.310954 2.977508,-0.02175 5.805674,-0.03515 6.284813,-0.02979 2.055926,0.02302 3.469625,0.871154 4.255734,2.553187 0.315058,0.674127 0.348262,0.873731 0.341593,2.053453 -0.02036,3.602127 -1.577483,5.126102 -5.717393,5.59569 -1.286489,0.145925 -6.480499,0.145452 -7.591556,-6.97e-4 z m -1.415235,-3.923154 c 0.725064,-0.374945 1.087156,-1.871407 0.685447,-2.832831 -0.22222,-0.531848 -0.883022,-1.079266 -1.302101,-1.07868 -0.8830048,0.0012 -1.5701204,0.932741 -1.5602652,2.115214 0.012612,1.513269 1.0572822,2.375284 2.1769192,1.796297 z m 11.108174,-0.06496 c 1.045652,-0.82251 0.986654,-2.94958 -0.100194,-3.612339 -0.531868,-0.324332 -0.979526,-0.292885 -1.44853,0.101755 -0.733867,0.617509 -0.950026,1.745455 -0.533833,2.785622 0.361795,0.904215 1.396682,1.264471 2.082557,0.724962 z"
     id="path30" />
  <path
     style="fill:#ffffff;fill-opacity:0;stroke-width:0.124452"
     d="M 12.577577,25.764132 C 9.5635914,25.367685 7.7727118,24.356781 6.882825,22.549597 6.4957421,21.763508 6.4794421,21.669946 6.4794421,20.234172 c 0,-1.429266 0.016711,-1.526495 0.3733552,-2.172351 0.4976929,-0.901283 1.4155279,-1.825115 2.1445721,-2.158585 0.5760326,-0.263482 0.7515104,-0.272565 6.0070166,-0.310954 2.977508,-0.02175 5.805674,-0.03515 6.284813,-0.02979 2.055926,0.02302 3.469625,0.871154 4.255734,2.553187 0.315058,0.674127 0.348262,0.873731 0.341593,2.053453 -0.02036,3.602127 -1.577483,5.126102 -5.717393,5.59569 -1.286489,0.145925 -6.480499,0.145452 -7.591556,-6.97e-4 z m -1.415235,-3.923154 c 0.725064,-0.374945 1.087156,-1.871407 0.685447,-2.832831 -0.22222,-0.531848 -0.883022,-1.079266 -1.302101,-1.07868 -0.8830048,0.0012 -1.5701204,0.932741 -1.5602652,2.115214 0.012612,1.513269 1.0572822,2.375284 2.1769192,1.796297 z m 11.108174,-0.06496 c 1.045652,-0.82251 0.986654,-2.94958 -0.100194,-3.612339 -0.531868,-0.324332 -0.979526,-0.292885 -1.44853,0.101755 -0.733867,0.617509 -0.950026,1.745455 -0.533833,2.785622 0.361795,0.904215 1.396682,1.264471 2.082557,0.724962 z"
     id="path32" />
  <path
     style="fill:#ffffff;fill-opacity:0;stroke-width:0.124452"
     d="M 12.577577,25.764132 C 9.5635914,25.367685 7.7727118,24.356781 6.882825,22.549597 6.4957421,21.763508 6.4794421,21.669946 6.4794421,20.234172 c 0,-1.429266 0.016711,-1.526495 0.3733552,-2.172351 0.4976929,-0.901283 1.4155279,-1.825115 2.1445721,-2.158585 0.5760326,-0.263482 0.7515104,-0.272565 6.0070166,-0.310954 2.977508,-0.02175 5.805674,-0.03515 6.284813,-0.02979 2.055926,0.02302 3.469625,0.871154 4.255734,2.553187 0.315058,0.674127 0.348262,0.873731 0.341593,2.053453 -0.02036,3.602127 -1.577483,5.126102 -5.717393,5.59569 -1.286489,0.145925 -6.480499,0.145452 -7.591556,-6.97e-4 z m -1.415235,-3.923154 c 0.725064,-0.374945 1.087156,-1.871407 0.685447,-2.832831 -0.22222,-0.531848 -0.883022,-1.079266 -1.302101,-1.07868 -0.8830048,0.0012 -1.5701204,0.932741 -1.5602652,2.115214 0.012612,1.513269 1.0572822,2.375284 2.1769192,1.796297 z m 11.108174,-0.06496 c 1.045652,-0.82251 0.986654,-2.94958 -0.100194,-3.612339 -0.531868,-0.324332 -0.979526,-0.292885 -1.44853,0.101755 -0.733867,0.617509 -0.950026,1.745455 -0.533833,2.785622 0.361795,0.904215 1.396682,1.264471 2.082557,0.724962 z"
     id="path34" />
  <path
     style="fill:#ffffff;fill-opacity:0;stroke-width:0.124452"
     d="M 12.577577,25.764132 C 9.5635914,25.367685 7.7727118,24.356781 6.882825,22.549597 6.4957421,21.763508 6.4794421,21.669946 6.4794421,20.234172 c 0,-1.429266 0.016711,-1.526495 0.3733552,-2.172351 0.4976929,-0.901283 1.4155279,-1.825115 2.1445721,-2.158585 0.5760326,-0.263482 0.7515104,-0.272565 6.0070166,-0.310954 2.977508,-0.02175 5.805674,-0.03515 6.284813,-0.02979 2.055926,0.02302 3.469625,0.871154 4.255734,2.553187 0.315058,0.674127 0.348262,0.873731 0.341593,2.053453 -0.02036,3.602127 -1.577483,5.126102 -5.717393,5.59569 -1.286489,0.145925 -6.480499,0.145452 -7.591556,-6.97e-4 z m -1.415235,-3.923154 c 0.725064,-0.374945 1.087156,-1.871407 0.685447,-2.832831 -0.22222,-0.531848 -0.883022,-1.079266 -1.302101,-1.07868 -0.8830048,0.0012 -1.5701204,0.932741 -1.5602652,2.115214 0.012612,1.513269 1.0572822,2.375284 2.1769192,1.796297 z m 11.108174,-0.06496 c 1.045652,-0.82251 0.986654,-2.94958 -0.100194,-3.612339 -0.531868,-0.324332 -0.979526,-0.292885 -1.44853,0.101755 -0.733867,0.617509 -0.950026,1.745455 -0.533833,2.785622 0.361795,0.904215 1.396682,1.264471 2.082557,0.724962 z"
     id="path36" />
  <path
     style="fill:#ffffff;fill-opacity:0;stroke-width:0.124452"
     d="M 12.577577,25.764132 C 9.5635914,25.367685 7.7727118,24.356781 6.882825,22.549597 6.4957421,21.763508 6.4794421,21.669946 6.4794421,20.234172 c 0,-1.429266 0.016711,-1.526495 0.3733552,-2.172351 0.4976929,-0.901283 1.4155279,-1.825115 2.1445721,-2.158585 0.5760326,-0.263482 0.7515104,-0.272565 6.0070166,-0.310954 2.977508,-0.02175 5.805674,-0.03515 6.284813,-0.02979 2.055926,0.02302 3.469625,0.871154 4.255734,2.553187 0.315058,0.674127 0.348262,0.873731 0.341593,2.053453 -0.02036,3.602127 -1.577483,5.126102 -5.717393,5.59569 -1.286489,0.145925 -6.480499,0.145452 -7.591556,-6.97e-4 z m -1.415235,-3.923154 c 0.725064,-0.374945 1.087156,-1.871407 0.685447,-2.832831 -0.22222,-0.531848 -0.883022,-1.079266 -1.302101,-1.07868 -0.8830048,0.0012 -1.5701204,0.932741 -1.5602652,2.115214 0.012612,1.513269 1.0572822,2.375284 2.1769192,1.796297 z m 11.108174,-0.06496 c 1.045652,-0.82251 0.986654,-2.94958 -0.100194,-3.612339 -0.531868,-0.324332 -0.979526,-0.292885 -1.44853,0.101755 -0.733867,0.617509 -0.950026,1.745455 -0.533833,2.785622 0.361795,0.904215 1.396682,1.264471 2.082557,0.724962 z"
     id="path38" />
  <path
     style="fill:#ffffff;fill-opacity:0;stroke-width:0.124452"
     d="M 12.577577,25.764132 C 9.5635914,25.367685 7.7727118,24.356781 6.882825,22.549597 6.4957421,21.763508 6.4794421,21.669946 6.4794421,20.234172 c 0,-1.429266 0.016711,-1.526495 0.3733552,-2.172351 0.4976929,-0.901283 1.4155279,-1.825115 2.1445721,-2.158585 0.5760326,-0.263482 0.7515104,-0.272565 6.0070166,-0.310954 2.977508,-0.02175 5.805674,-0.03515 6.284813,-0.02979 2.055926,0.02302 3.469625,0.871154 4.255734,2.553187 0.315058,0.674127 0.348262,0.873731 0.341593,2.053453 -0.02036,3.602127 -1.577483,5.126102 -5.717393,5.59569 -1.286489,0.145925 -6.480499,0.145452 -7.591556,-6.97e-4 z m -1.415235,-3.923154 c 0.725064,-0.374945 1.087156,-1.871407 0.685447,-2.832831 -0.22222,-0.531848 -0.883022,-1.079266 -1.302101,-1.07868 -0.8830048,0.0012 -1.5701204,0.932741 -1.5602652,2.115214 0.012612,1.513269 1.0572822,2.375284 2.1769192,1.796297 z m 11.108174,-0.06496 c 1.045652,-0.82251 0.986654,-2.94958 -0.100194,-3.612339 -0.531868,-0.324332 -0.979526,-0.292885 -1.44853,0.101755 -0.733867,0.617509 -0.950026,1.745455 -0.533833,2.785622 0.361795,0.904215 1.396682,1.264471 2.082557,0.724962 z"
     id="path40" />
</svg>
