<?xml version="1.0" encoding="UTF-8" standalone="no"?>
<svg
   xmlns:dc="http://purl.org/dc/elements/1.1/"
   xmlns:cc="http://creativecommons.org/ns#"
   xmlns:rdf="http://www.w3.org/1999/02/22-rdf-syntax-ns#"
   xmlns:svg="http://www.w3.org/2000/svg"
   xmlns="http://www.w3.org/2000/svg"
   xmlns:sodipodi="http://sodipodi.sourceforge.net/DTD/sodipodi-0.dtd"
   xmlns:inkscape="http://www.inkscape.org/namespaces/inkscape"
   width="17px"
   height="17px"
   viewBox="0 0 17 17"
   version="1.1"
   id="svg58"
   sodipodi:docname="github-svgrepo-com (2).svg"
   inkscape:version="1.0.2-2 (e86c870879, 2021-01-15)">
  <metadata
     id="metadata64">
    <rdf:RDF>
      <cc:Work
         rdf:about="">
        <dc:format>image/svg+xml</dc:format>
        <dc:type
           rdf:resource="http://purl.org/dc/dcmitype/StillImage" />
      </cc:Work>
    </rdf:RDF>
  </metadata>
  <defs
     id="defs62" />
  <sodipodi:namedview
     pagecolor="#ffffff"
     bordercolor="#666666"
     borderopacity="1"
     objecttolerance="10"
     gridtolerance="10"
     guidetolerance="10"
     inkscape:pageopacity="0"
     inkscape:pageshadow="2"
     inkscape:window-width="687"
     inkscape:window-height="480"
     id="namedview60"
     showgrid="false"
     inkscape:zoom="15.153671"
     inkscape:cx="8.5"
     inkscape:cy="8.5"
     inkscape:window-x="0"
     inkscape:window-y="0"
     inkscape:window-maximized="0"
     inkscape:current-layer="svg58" />
  <g
     id="g54" />
  <path
     d="M13.077 11.115c0 0.746-0.389 1.962-1.308 1.962-0.92 0-1.309-1.216-1.309-1.962 0-0.745 0.389-1.962 1.309-1.962 0.919 0 1.308 1.217 1.308 1.962zM5.231 9.153c-0.919 0-1.308 1.217-1.308 1.962 0 0.746 0.389 1.962 1.308 1.962 0.919 0 1.308-1.216 1.308-1.962 0-0.745-0.389-1.962-1.308-1.962zM17 9.317c0 1.135-0.112 2.34-0.623 3.382-1.349 2.728-5.057 2.993-7.713 2.993-2.697 0-6.63-0.234-8.030-2.993-0.522-1.032-0.634-2.247-0.634-3.382 0-1.492 0.409-2.901 1.39-4.045-0.184-0.562-0.276-1.155-0.276-1.738 0-0.766 0.173-1.531 0.521-2.227 1.614 0 2.646 0.705 3.872 1.665 1.032-0.245 2.094-0.357 3.157-0.357 0.96 0 1.931 0.103 2.861 0.327 1.216-0.95 2.247-1.635 3.841-1.635 0.348 0.695 0.521 1.461 0.521 2.227 0 0.583-0.092 1.165-0.276 1.717 0.981 1.154 1.389 2.574 1.389 4.066zM14.711 11.115c0-1.563-0.949-2.942-2.615-2.942-0.674 0-1.317 0.123-1.992 0.215-0.531 0.082-1.062 0.112-1.604 0.112s-1.073-0.030-1.604-0.112c-0.664-0.092-1.318-0.215-1.992-0.215-1.665 0-2.615 1.379-2.615 2.942 0 3.126 2.86 3.606 5.353 3.606h1.717c2.493 0.001 5.352-0.48 5.352-3.606z"
     fill="#000000"
     id="path56" />
  <path
     style="fill:#ffffff;fill-opacity:0;stroke-width:0.0659906"
     d="M 5.9593615,14.595727 C 4.3006595,14.388538 3.1508634,13.715979 2.6518422,12.661032 1.8369691,10.938366 2.5575513,8.8198263 4.122796,8.3363714 c 0.5511148,-0.170222 0.9791725,-0.167889 2.1835281,0.011901 1.3490413,0.2013888 3.0383102,0.2013888 4.3873519,0 1.204355,-0.1797897 1.632413,-0.1821227 2.183528,-0.011901 1.565245,0.4834549 2.285827,2.6019946 1.470954,4.3246606 -0.510808,1.079865 -1.630323,1.722314 -3.37351,1.935936 -0.690565,0.08463 -4.3350709,0.08372 -5.0152865,-0.0012 z M 5.8372355,12.904853 C 6.2815022,12.588507 6.6458623,11.520975 6.5502326,10.815856 6.414312,9.813653 5.8650139,9.1269108 5.1993119,9.1269108 c -0.8098418,0 -1.4718844,1.2719232 -1.2601546,2.4210222 0.1161561,0.630401 0.3621884,1.111526 0.6908872,1.351054 0.2425417,0.176744 0.3149998,0.196363 0.6407311,0.173493 0.2370904,-0.01665 0.4378673,-0.07606 0.5664599,-0.167627 z m 6.4567585,0.0498 c 0.78335,-0.484137 1.049354,-2.030382 0.522265,-3.0358559 -0.207294,-0.395434 -0.284395,-0.4857576 -0.555961,-0.6513062 -0.606526,-0.3697423 -1.310901,0.011209 -1.651818,0.8933621 -0.382107,0.988738 -0.02677,2.468672 0.675873,2.814946 0.30266,0.149156 0.749221,0.139803 1.009641,-0.02115 z"
     id="path66" />
  <path
     style="fill:#ffffff;fill-opacity:0;stroke-width:0.0659906"
     d="M 5.9593615,14.595727 C 4.3006595,14.388538 3.1508634,13.715979 2.6518422,12.661032 1.8369691,10.938366 2.5575513,8.8198263 4.122796,8.3363714 c 0.5511148,-0.170222 0.9791725,-0.167889 2.1835281,0.011901 1.3490413,0.2013888 3.0383102,0.2013888 4.3873519,0 1.204355,-0.1797897 1.632413,-0.1821227 2.183528,-0.011901 1.565245,0.4834549 2.285827,2.6019946 1.470954,4.3246606 -0.510808,1.079865 -1.630323,1.722314 -3.37351,1.935936 -0.690565,0.08463 -4.3350709,0.08372 -5.0152865,-0.0012 z M 5.8372355,12.904853 C 6.2815022,12.588507 6.6458623,11.520975 6.5502326,10.815856 6.414312,9.813653 5.8650139,9.1269108 5.1993119,9.1269108 c -0.8098418,0 -1.4718844,1.2719232 -1.2601546,2.4210222 0.1161561,0.630401 0.3621884,1.111526 0.6908872,1.351054 0.2425417,0.176744 0.3149998,0.196363 0.6407311,0.173493 0.2370904,-0.01665 0.4378673,-0.07606 0.5664599,-0.167627 z m 6.4567585,0.0498 c 0.78335,-0.484137 1.049354,-2.030382 0.522265,-3.0358559 -0.207294,-0.395434 -0.284395,-0.4857576 -0.555961,-0.6513062 -0.606526,-0.3697423 -1.310901,0.011209 -1.651818,0.8933621 -0.382107,0.988738 -0.02677,2.468672 0.675873,2.814946 0.30266,0.149156 0.749221,0.139803 1.009641,-0.02115 z"
     id="path68" />
</svg>
